<svg xmlns="http://www.w3.org/2000/svg" xmlns:xlink="http://www.w3.org/1999/xlink" width="321.091" height="321.091" viewBox="0 0 321.091 321.091"><defs><clipPath id="a"><circle cx="157.251" cy="157.251" r="157.251" fill="none"/></clipPath></defs><g transform="translate(-774.359 -105.593)"><path d="M934.906,426.684c-88.527,0-160.547-72.02-160.547-160.544s72.02-160.547,160.547-160.547,160.545,72.02,160.545,160.547S1023.431,426.684,934.906,426.684Zm0-318.709c-84.405,0-153.072,68.666-153.072,153.072S850.5,414.12,934.906,414.12s153.07-68.669,153.07-153.072S1019.309,107.976,934.906,107.976Z" transform="translate(0 0)" fill="#fff"/><g transform="translate(778.831 107.934)"><g clip-path="url(#a)"><path d="M788.609,387.505l-2.206-.247c.12-1.1,3.621-27.3,58.936-61.7,24.953-15.518,46.773-20.958,67.877-26.217,26.118-6.511,53.125-13.244,86.948-39.08,51.927-39.665,52.944-76.388,53.928-111.9.174-6.267.353-12.748.806-19.153l2.214.157c-.449,6.359-.628,12.814-.8,19.057-1,36.035-2.03,73.293-54.8,113.6-34.192,26.118-61.424,32.907-87.761,39.472-21.9,5.456-42.586,10.612-67.245,25.947C792.288,361.159,788.639,387.247,788.609,387.505Z" transform="translate(-762.576 -76.061)" fill="#fff"/><path d="M788.44,381.28l-2.2-.324c.162-1.1,4.57-27.159,61.049-59.608,25.481-14.642,47.478-19.318,68.751-23.841,26.329-5.6,53.554-11.385,88.257-36.027,53.271-37.832,55.569-74.494,57.792-109.953.393-6.258.8-12.729,1.473-19.116l2.206.235c-.67,6.337-1.074,12.785-1.466,19.022-2.253,35.976-4.584,73.176-58.72,111.621-35.081,24.908-62.531,30.747-89.079,36.389-22.077,4.693-42.931,9.127-68.107,23.592C793.034,355.081,788.482,381.021,788.44,381.28Z" transform="translate(-762.79 -71.736)" fill="#fff"/><path d="M788.4,375.079l-2.185-.395c.2-1.086,5.48-26.988,63.02-57.519,25.958-13.772,48.1-17.706,69.512-21.508,26.5-4.707,53.907-9.576,89.422-33.036,54.514-36.011,58.045-72.577,61.462-107.939.6-6.241,1.229-12.694,2.12-19.055l2.2.308c-.883,6.312-1.5,12.745-2.105,18.963-3.466,35.879-7.049,72.978-62.446,109.577-35.9,23.714-63.534,28.623-90.259,33.367-22.222,3.948-43.211,7.675-68.859,21.282C793.68,349.156,788.445,374.826,788.4,375.079Z" transform="translate(-762.828 -67.392)" fill="#fff"/><path d="M788.446,368.783l-2.166-.47c.233-1.081,6.375-26.793,64.9-55.392,26.4-12.9,48.66-16.092,70.189-19.182,26.644-3.823,54.194-7.773,90.47-30.043,55.686-34.181,60.433-70.61,65.022-105.841.808-6.215,1.647-12.644,2.747-18.968l2.188.381c-1.095,6.279-1.927,12.68-2.735,18.874-4.655,35.748-9.47,72.713-66.06,107.446-36.669,22.509-64.451,26.494-91.316,30.348-22.342,3.205-43.444,6.232-69.531,18.982C794.786,342.951,788.505,368.527,788.446,368.783Z" transform="translate(-762.74 -62.992)" fill="#fff"/><path d="M788.547,362.121l-2.152-.543c.268-1.072,7.282-26.562,66.745-53.155,26.823-12,49.182-14.433,70.8-16.787,26.76-2.916,54.429-5.929,91.439-26.95,56.814-32.27,62.8-68.516,68.58-103.568,1.02-6.185,2.075-12.581,3.393-18.867l2.171.454c-1.306,6.241-2.357,12.614-3.374,18.775-5.87,35.567-11.939,72.344-69.672,105.138-37.412,21.247-65.313,24.288-92.294,27.225-22.438,2.444-43.634,4.751-70.14,16.609C795.759,336.518,788.611,361.87,788.547,362.121Z" transform="translate(-762.585 -58.452)" fill="#fff"/><path d="M788.759,355.49l-2.136-.616c.305-1.062,8.158-26.3,68.467-50.918,27.209-11.1,49.633-12.8,71.322-14.435,26.837-2.028,54.593-4.124,92.28-23.907,57.85-30.374,65.029-66.4,71.968-101.244,1.227-6.149,2.493-12.508,4.014-18.745l2.157.529c-1.513,6.189-2.775,12.525-3.992,18.648-7.042,35.353-14.325,71.912-73.112,102.776-38.1,20-66.084,22.112-93.147,24.156-22.507,1.7-43.765,3.306-70.65,14.277C796.809,330.14,788.832,355.238,788.759,355.49Z" transform="translate(-762.277 -53.898)" fill="#fff"/><path d="M789.114,349.2,787,348.515c.341-1.05,8.974-26.038,70.015-48.766,27.54-10.252,50-11.251,71.735-12.214,26.889-1.194,54.695-2.427,92.98-21.033,58.764-28.56,67.054-64.35,75.074-98.958,1.417-6.11,2.879-12.424,4.594-18.611l2.138.592c-1.7,6.142-3.158,12.435-4.57,18.519-8.135,35.118-16.55,71.43-76.268,100.455C984,287.3,955.963,288.55,928.846,289.751c-22.547,1-43.845,1.95-71.056,12.078C797.951,324.11,789.2,348.95,789.114,349.2Z" transform="translate(-761.77 -49.433)" fill="#fff"/><path d="M789.507,342.491l-2.094-.745c.374-1.041,9.8-25.74,71.547-46.494,27.852-9.364,50.338-9.639,72.086-9.909,26.915-.327,54.746-.67,93.607-18.037,59.648-26.659,69.087-62.162,78.211-96.493,1.612-6.06,3.278-12.327,5.191-18.458l2.122.66c-1.9,6.086-3.562,12.329-5.165,18.366-9.263,34.836-18.836,70.861-79.455,97.952-39.279,17.556-67.344,17.9-94.484,18.232-22.568.275-43.885.536-71.409,9.789C798.939,317.771,789.594,342.246,789.507,342.491Z" transform="translate(-761.211 -44.814)" fill="#fff"/><path d="M790.028,336.147l-2.068-.811c.4-1.032,10.572-25.43,72.917-44.315C889,282.5,911.49,282.9,933.228,283.295c26.906.489,54.739.982,94.108-15.206,60.428-24.849,70.932-60.05,81.09-94.094,1.793-6.008,3.647-12.221,5.743-18.291l2.1.726c-2.082,6.023-3.929,12.214-5.715,18.2-10.306,34.542-20.963,70.26-82.371,95.511-39.794,16.364-67.851,15.873-94.994,15.373-22.575-.4-43.885-.785-71.67,7.632C800.407,311.657,790.124,335.9,790.028,336.147Z" transform="translate(-760.473 -40.293)" fill="#fff"/><path d="M790.6,329.487l-2.04-.874c.435-1.018,11.354-25.091,74.247-42.043,28.369-7.646,50.829-6.549,72.558-5.487,26.894,1.311,54.688,2.672,94.533-12.292,61.168-22.972,72.753-57.834,83.959-91.547,1.974-5.95,4.018-12.1,6.3-18.1l2.075.79c-2.268,5.954-4.3,12.083-6.272,18.011-11.369,34.206-23.125,69.581-85.284,92.926-40.281,15.123-68.309,13.756-95.422,12.431-22.542-1.1-43.833-2.141-71.872,5.412C801.727,305.331,790.7,329.248,790.6,329.487Z" transform="translate(-759.668 -35.65)" fill="#fff"/><path d="M791.232,322.682l-2.011-.938c.465-1,12.125-24.727,75.516-39.719,28.6-6.765,51.015-4.975,72.692-3.238,26.835,2.148,54.581,4.361,94.867-9.357,61.852-21.064,74.51-55.55,86.753-88.9,2.162-5.886,4.4-11.972,6.864-17.9l2.051.853c-2.451,5.884-4.678,11.947-6.831,17.812-12.421,33.84-25.268,68.829-88.121,90.235-40.725,13.869-68.7,11.632-95.76,9.467-22.5-1.8-43.749-3.5-72.006,3.184C803.108,298.883,791.345,322.447,791.232,322.682Z" transform="translate(-758.77 -30.94)" fill="#fff"/><path d="M791.926,315.614l-1.978-1c.494-.987,12.9-24.332,76.731-37.318,28.788-5.858,51.142-3.358,72.755-.942,26.75,2.987,54.408,6.084,95.118-6.361,62.482-19.1,76.223-53.169,89.512-86.114,2.348-5.816,4.773-11.829,7.428-17.678l2.021.919c-2.637,5.8-5.052,11.794-7.388,17.588-13.483,33.429-27.427,68-90.924,87.411-41.148,12.576-69.04,9.456-96.014,6.441-22.434-2.512-43.613-4.881-72.069.909C804.547,292.2,792.047,315.382,791.926,315.614Z" transform="translate(-757.789 -26.124)" fill="#fff"/><path d="M792.732,308.853l-1.951-1.06c.524-.973,13.62-23.935,77.814-35,28.959-4.986,51.226-1.821,72.753,1.248,26.649,3.793,54.2,7.712,95.266-3.5,63.027-17.215,77.786-50.852,92.059-83.386,2.521-5.741,5.125-11.681,7.954-17.445l1.993.978c-2.808,5.724-5.4,11.639-7.912,17.358-14.482,33.01-29.457,67.141-93.511,84.638-41.5,11.333-69.294,7.383-96.162,3.555-22.347-3.179-43.455-6.187-72.064-1.252C806.049,285.827,792.855,308.623,792.732,308.853Z" transform="translate(-756.663 -21.393)" fill="#fff"/><path d="M793.632,302.366l-1.925-1.111c.557-.956,14.308-23.536,78.794-32.749,29.084-4.159,51.25-.353,72.685,3.332,26.529,4.559,53.961,9.272,95.328-.766,63.5-15.4,79.215-48.6,94.416-80.712,2.683-5.665,5.456-11.528,8.45-17.208l1.965,1.034c-2.973,5.64-5.736,11.479-8.408,17.123-15.424,32.58-31.372,66.272-95.9,81.919-41.813,10.144-69.47,5.391-96.225.794-22.239-3.819-43.248-7.43-72-3.32C807.39,279.768,793.759,302.141,793.632,302.366Z" transform="translate(-755.415 -16.741)" fill="#fff"/><path d="M794.659,297l-1.894-1.163c.578-.942,14.879-23.176,79.567-30.809,29.2-3.44,51.25.907,72.586,5.109,26.41,5.2,53.717,10.591,95.316,1.57,63.854-13.84,80.38-46.649,96.364-78.376,2.82-5.6,5.738-11.392,8.87-17l1.936,1.083c-3.106,5.564-6.016,11.333-8.824,16.912-16.216,32.195-32.984,65.485-97.877,79.551-42.043,9.115-69.588,3.687-96.216-1.563-22.145-4.364-43.065-8.485-71.893-5.083C809.181,274.709,794.8,296.772,794.659,297Z" transform="translate(-753.987 -12.456)" fill="#fff"/><path d="M795.627,289.566l-1.852-1.222c.606-.926,15.6-22.7,80.5-28.282,29.272-2.517,51.193,2.521,72.386,7.4,26.231,6.037,53.35,12.28,95.222,4.58,64.258-11.82,81.811-44.09,98.788-75.3,3-5.508,6.093-11.2,9.4-16.71l1.9,1.144c-3.283,5.463-6.37,11.138-9.355,16.625-17.224,31.664-35.036,64.409-100.34,76.419-42.318,7.778-69.67,1.487-96.119-4.6-21.992-5.059-42.757-9.853-71.7-7.35C810.846,267.748,795.772,289.347,795.627,289.566Z" transform="translate(-752.623 -7.449)" fill="#fff"/><path d="M796.691,282.392l-1.816-1.278c.634-.9,16.287-22.208,81.325-25.82,29.337-1.635,51.092,4.077,72.128,9.6,26.036,6.829,52.951,13.892,95.036,7.472,64.59-9.857,83.116-41.578,101.033-72.255,3.163-5.416,6.434-11.016,9.907-16.416l1.868,1.2c-3.45,5.36-6.7,10.941-9.858,16.334-18.178,31.128-36.977,63.314-102.614,73.328-42.534,6.495-69.684-.63-95.936-7.517-21.828-5.724-42.431-11.126-71.442-9.526C812.569,261.051,796.842,282.18,796.691,282.392Z" transform="translate(-751.138 -2.514)" fill="#fff"/><path d="M1018.364,276.57c-28.179,0-48.886-6.088-69.068-12.022-21.654-6.366-42.09-12.424-71.132-11.615C814.331,254.6,798,275.262,797.838,275.466l-1.779-1.328c.66-.886,16.93-21.724,82.046-23.428,29.4-.766,50.951,5.574,71.815,11.709,25.824,7.59,52.535,15.443,94.775,10.255,64.85-7.961,84.3-39.122,103.11-69.261,3.32-5.32,6.754-10.821,10.384-16.117l1.833,1.252c-3.6,5.259-7.026,10.741-10.334,16.04-19.085,30.578-38.819,62.2-104.72,70.288A217.831,217.831,0,0,1,1018.364,276.57Z" transform="translate(-749.54 2.35)" fill="#fff"/></g></g></g></svg>